# xmcd CD database file
#
# Track frame offsets:
#	150
#	25518
#	52018
#	62605
#	84708
#	113345
#	141473
#	165308
#	186020
#	210928
#
# Disc length: 3170 seconds
#
# Revision: 0
# Processed by: cddbd v1.5.1PL0 Copyright (c) Steve Scherf et al.
# Submitted via: CDex 1.51
#
DISCID=790c600a
DTITLE=Grand Prix - Rock
DYEAR=1900
DGENRE=Hard Rock
TTITLE0=Young Boy's Soul
TTITLE1=Rockin' Street
TTITLE2=Workin' Street
TTITLE3=Lucky Angel
TTITLE4=Sail Away
TTITLE5=Thousand Fortunes
TTITLE6=Night Time Fly
TTITLE7=Someday
TTITLE8=Hill Of The Rock
TTITLE9=Open Your Eyes#2
EXTD=
EXTT0=
EXTT1=
EXTT2=
EXTT3=
EXTT4=
EXTT5=
EXTT6=
EXTT7=
EXTT8=
EXTT9=
PLAYORDER=
